<svg width="67" height="285" viewBox="0 0 67 285" fill="none" xmlns="http://www.w3.org/2000/svg">
<rect x="2.5" y="282.5" width="280" height="62" transform="rotate(-90 2.5 282.5)" fill="#343434" stroke="#FCF7EB" stroke-width="5"/>
<mask id="path-2-outside-1_282_670" maskUnits="userSpaceOnUse" x="19" y="22" width="32" height="240" fill="black">
<rect fill="white" x="19" y="22" width="32" height="240"/>
<path d="M49 235.445V243.18L36.4219 252.066L39.3711 254.938H49V260.855H20.2109V254.938H32.0664L20.2109 243.824V236.051L32.0664 247.848L49 235.445ZM37.9062 215.016H20.2109L20.2109 208.902H37.9062C40.9661 208.902 43.349 209.378 45.0547 210.328C48.1797 212.099 49.7422 215.478 49.7422 220.465C49.7422 225.452 48.1797 228.837 45.0547 230.621C43.349 231.572 40.9661 232.047 37.9062 232.047H20.2109V225.934H37.9062C39.8854 225.934 41.3307 225.699 42.2422 225.23C43.8568 224.501 44.6641 222.913 44.6641 220.465C44.6641 218.03 43.8568 216.448 42.2422 215.719C41.3307 215.25 39.8854 215.016 37.9062 215.016ZM20.2109 203.141V197.125H43.8242V182.867H49V203.141H20.2109ZM20.2109 160.738H25.3086V169.352H49V175.406H25.3086V184.059H20.2109V160.738ZM37.9063 140.172H20.2109L20.2109 134.059H37.9063C40.9661 134.059 43.349 134.534 45.0547 135.484C48.1797 137.255 49.7422 140.634 49.7422 145.621C49.7422 150.608 48.1797 153.993 45.0547 155.777C43.349 156.728 40.9661 157.203 37.9063 157.203H20.2109L20.2109 151.09H37.9063C39.8854 151.09 41.3307 150.855 42.2422 150.387C43.8568 149.658 44.6641 148.069 44.6641 145.621C44.6641 143.186 43.8568 141.604 42.2422 140.875C41.3307 140.406 39.8854 140.172 37.9063 140.172ZM37.7109 116.07V122.281H49V128.16H20.2109V114.039C20.25 112.021 20.4974 110.471 20.9531 109.391C21.4089 108.297 22.0794 107.372 22.9648 106.617C23.694 105.992 24.5013 105.497 25.3867 105.133C26.2721 104.768 27.2813 104.586 28.4141 104.586C29.7813 104.586 31.1289 104.931 32.457 105.621C33.7721 106.311 34.7031 107.451 35.25 109.039C35.7839 107.711 36.5456 106.773 37.5352 106.227C38.5117 105.667 40.0091 105.387 42.0273 105.387H43.9609C45.276 105.387 46.168 105.335 46.6367 105.23C47.3789 105.074 47.9258 104.71 48.2773 104.137H49V110.758C48.362 110.94 47.8477 111.07 47.457 111.148C46.6497 111.305 45.8229 111.389 44.9766 111.402L42.3008 111.441C40.4648 111.467 39.2409 111.806 38.6289 112.457C38.0169 113.095 37.7109 114.299 37.7109 116.07ZM32.4766 112.418C31.9297 111.22 30.849 110.621 29.2344 110.621C27.4896 110.621 26.3177 111.201 25.7188 112.359C25.3802 113.01 25.2109 113.987 25.2109 115.289V122.281H32.9453V115.465C32.9453 114.111 32.7891 113.095 32.4766 112.418ZM49 76.1094V82.125L28.5508 93.8828H49V99.4883H20.2109V93.1797L40.3086 81.7148H20.2109V76.1094H49ZM43.082 53.6289V64.2344L49 66.2266V72.5156L20.2109 62.2422L20.2109 55.4453L49 45.25V51.7734L43.082 53.6289ZM38.1211 55.3086L26.793 58.9023L38.1211 62.6133V55.3086ZM20.2109 23.6289H25.3086V32.2422H49V38.2969H25.3086V46.9492H20.2109V23.6289Z"/>
</mask>
<path d="M49 235.445V243.18L36.4219 252.066L39.3711 254.938H49V260.855H20.2109V254.938H32.0664L20.2109 243.824V236.051L32.0664 247.848L49 235.445ZM37.9062 215.016H20.2109L20.2109 208.902H37.9062C40.9661 208.902 43.349 209.378 45.0547 210.328C48.1797 212.099 49.7422 215.478 49.7422 220.465C49.7422 225.452 48.1797 228.837 45.0547 230.621C43.349 231.572 40.9661 232.047 37.9062 232.047H20.2109V225.934H37.9062C39.8854 225.934 41.3307 225.699 42.2422 225.23C43.8568 224.501 44.6641 222.913 44.6641 220.465C44.6641 218.03 43.8568 216.448 42.2422 215.719C41.3307 215.25 39.8854 215.016 37.9062 215.016ZM20.2109 203.141V197.125H43.8242V182.867H49V203.141H20.2109ZM20.2109 160.738H25.3086V169.352H49V175.406H25.3086V184.059H20.2109V160.738ZM37.9063 140.172H20.2109L20.2109 134.059H37.9063C40.9661 134.059 43.349 134.534 45.0547 135.484C48.1797 137.255 49.7422 140.634 49.7422 145.621C49.7422 150.608 48.1797 153.993 45.0547 155.777C43.349 156.728 40.9661 157.203 37.9063 157.203H20.2109L20.2109 151.09H37.9063C39.8854 151.09 41.3307 150.855 42.2422 150.387C43.8568 149.658 44.6641 148.069 44.6641 145.621C44.6641 143.186 43.8568 141.604 42.2422 140.875C41.3307 140.406 39.8854 140.172 37.9063 140.172ZM37.7109 116.07V122.281H49V128.16H20.2109V114.039C20.25 112.021 20.4974 110.471 20.9531 109.391C21.4089 108.297 22.0794 107.372 22.9648 106.617C23.694 105.992 24.5013 105.497 25.3867 105.133C26.2721 104.768 27.2813 104.586 28.4141 104.586C29.7813 104.586 31.1289 104.931 32.457 105.621C33.7721 106.311 34.7031 107.451 35.25 109.039C35.7839 107.711 36.5456 106.773 37.5352 106.227C38.5117 105.667 40.0091 105.387 42.0273 105.387H43.9609C45.276 105.387 46.168 105.335 46.6367 105.23C47.3789 105.074 47.9258 104.71 48.2773 104.137H49V110.758C48.362 110.94 47.8477 111.07 47.457 111.148C46.6497 111.305 45.8229 111.389 44.9766 111.402L42.3008 111.441C40.4648 111.467 39.2409 111.806 38.6289 112.457C38.0169 113.095 37.7109 114.299 37.7109 116.07ZM32.4766 112.418C31.9297 111.22 30.849 110.621 29.2344 110.621C27.4896 110.621 26.3177 111.201 25.7188 112.359C25.3802 113.01 25.2109 113.987 25.2109 115.289V122.281H32.9453V115.465C32.9453 114.111 32.7891 113.095 32.4766 112.418ZM49 76.1094V82.125L28.5508 93.8828H49V99.4883H20.2109V93.1797L40.3086 81.7148H20.2109V76.1094H49ZM43.082 53.6289V64.2344L49 66.2266V72.5156L20.2109 62.2422L20.2109 55.4453L49 45.25V51.7734L43.082 53.6289ZM38.1211 55.3086L26.793 58.9023L38.1211 62.6133V55.3086ZM20.2109 23.6289H25.3086V32.2422H49V38.2969H25.3086V46.9492H20.2109V23.6289Z" fill="#FCF7EB"/>
<path d="M49 235.445H50V233.473L48.4091 234.639L49 235.445ZM49 243.18L49.577 243.996L50 243.698V243.18H49ZM36.4219 252.066L35.8448 251.25L34.8624 251.944L35.7243 252.783L36.4219 252.066ZM39.3711 254.938L38.6735 255.654L38.9647 255.938H39.3711V254.938ZM49 254.938H50V253.938H49V254.938ZM49 260.855V261.855H50V260.855H49ZM20.2109 260.855H19.2109V261.855H20.2109V260.855ZM20.2109 254.938V253.938H19.2109V254.938H20.2109ZM32.0664 254.938V255.938H34.5954L32.7503 254.208L32.0664 254.938ZM20.2109 243.824H19.2109V244.257L19.527 244.554L20.2109 243.824ZM20.2109 236.051L20.9163 235.342L19.2109 233.645V236.051H20.2109ZM32.0664 247.848L31.3611 248.557L31.9673 249.16L32.6573 248.654L32.0664 247.848ZM48 235.445V243.18H50V235.445H48ZM48.423 242.363L35.8448 251.25L36.9989 252.883L49.577 243.996L48.423 242.363ZM35.7243 252.783L38.6735 255.654L40.0686 254.221L37.1194 251.35L35.7243 252.783ZM39.3711 255.938H49V253.938H39.3711V255.938ZM48 254.938V260.855H50V254.938H48ZM49 259.855H20.2109V261.855H49V259.855ZM21.2109 260.855V254.938H19.2109V260.855H21.2109ZM20.2109 255.938H32.0664V253.938H20.2109V255.938ZM32.7503 254.208L20.8948 243.095L19.527 244.554L31.3825 255.667L32.7503 254.208ZM21.2109 243.824V236.051H19.2109L19.2109 243.824H21.2109ZM19.5056 236.76L31.3611 248.557L32.7718 247.139L20.9163 235.342L19.5056 236.76ZM32.6573 248.654L49.5909 236.252L48.4091 234.639L31.4755 247.041L32.6573 248.654ZM20.2109 215.016H19.2109V216.016H20.2109V215.016ZM20.2109 208.902V207.902H19.2109V208.902H20.2109ZM45.0547 210.328L45.5477 209.458L45.5415 209.455L45.0547 210.328ZM45.0547 230.621L45.5415 231.495L45.5504 231.49L45.0547 230.621ZM20.2109 232.047H19.2109V233.047H20.2109V232.047ZM20.2109 225.934V224.934H19.2109V225.934H20.2109ZM42.2422 225.23L41.8306 224.319L41.8074 224.33L41.7848 224.341L42.2422 225.23ZM42.2422 215.719L41.7848 216.608L41.8074 216.62L41.8306 216.63L42.2422 215.719ZM37.9062 214.016H20.2109L20.2109 216.016H37.9062V214.016ZM21.2109 215.016L21.2109 208.902H19.2109L19.2109 215.016H21.2109ZM20.2109 209.902H37.9062V207.902H20.2109V209.902ZM37.9062 209.902C40.8834 209.902 43.0724 210.368 44.5679 211.202L45.5415 209.455C43.6256 208.387 41.0489 207.902 37.9062 207.902V209.902ZM44.5617 211.198C47.257 212.725 48.7422 215.681 48.7422 220.465H50.7422C50.7422 215.275 49.1024 211.472 45.5477 209.458L44.5617 211.198ZM48.7422 220.465C48.7422 225.249 47.257 228.212 44.5589 229.753L45.5504 231.49C49.1023 229.462 50.7422 225.655 50.7422 220.465H48.7422ZM44.5679 229.748C43.0724 230.581 40.8834 231.047 37.9062 231.047V233.047C41.0489 233.047 43.6256 232.562 45.5415 231.495L44.5679 229.748ZM37.9062 231.047H20.2109V233.047H37.9062V231.047ZM21.2109 232.047V225.934H19.2109V232.047H21.2109ZM20.2109 226.934H37.9062V224.934H20.2109V226.934ZM37.9062 226.934C39.9226 226.934 41.5679 226.702 42.6995 226.12L41.7848 224.341C41.0936 224.697 39.8482 224.934 37.9062 224.934V226.934ZM42.6538 226.142C44.7635 225.189 45.6641 223.129 45.6641 220.465H43.6641C43.6641 222.696 42.95 223.814 41.8306 224.319L42.6538 226.142ZM45.6641 220.465C45.6641 217.81 44.7615 215.759 42.6538 214.807L41.8306 216.63C42.952 217.137 43.6641 218.25 43.6641 220.465H45.6641ZM42.6995 214.829C41.5679 214.247 39.9226 214.016 37.9062 214.016V216.016C39.8482 216.016 41.0936 216.253 41.7848 216.608L42.6995 214.829ZM20.2109 203.141H19.2109V204.141H20.2109V203.141ZM20.2109 197.125V196.125H19.2109V197.125H20.2109ZM43.8242 197.125V198.125H44.8242V197.125H43.8242ZM43.8242 182.867V181.867H42.8242V182.867H43.8242ZM49 182.867H50V181.867H49V182.867ZM49 203.141V204.141H50V203.141H49ZM21.2109 203.141V197.125H19.2109V203.141H21.2109ZM20.2109 198.125H43.8242V196.125H20.2109V198.125ZM44.8242 197.125V182.867H42.8242V197.125H44.8242ZM43.8242 183.867H49V181.867H43.8242V183.867ZM48 182.867V203.141H50V182.867H48ZM49 202.141H20.2109V204.141H49V202.141ZM20.2109 160.738V159.738H19.2109L19.2109 160.738H20.2109ZM25.3086 160.738H26.3086V159.738H25.3086V160.738ZM25.3086 169.352H24.3086V170.352H25.3086V169.352ZM49 169.352H50V168.352H49V169.352ZM49 175.406V176.406H50V175.406H49ZM25.3086 175.406V174.406H24.3086V175.406H25.3086ZM25.3086 184.059V185.059H26.3086V184.059H25.3086ZM20.2109 184.059H19.2109V185.059H20.2109V184.059ZM20.2109 161.738H25.3086V159.738H20.2109V161.738ZM24.3086 160.738V169.352H26.3086V160.738H24.3086ZM25.3086 170.352H49V168.352H25.3086V170.352ZM48 169.352V175.406H50V169.352H48ZM49 174.406H25.3086V176.406H49V174.406ZM24.3086 175.406V184.059H26.3086V175.406H24.3086ZM25.3086 183.059H20.2109V185.059H25.3086V183.059ZM21.2109 184.059V160.738H19.2109V184.059H21.2109ZM20.2109 140.172H19.2109V141.172H20.2109V140.172ZM20.2109 134.059V133.059H19.2109V134.059H20.2109ZM45.0547 135.484L45.5477 134.614L45.5415 134.611L45.0547 135.484ZM45.0547 155.777L45.5415 156.651L45.5504 156.646L45.0547 155.777ZM20.2109 157.203H19.2109V158.203H20.2109V157.203ZM20.2109 151.09V150.09H19.2109V151.09H20.2109ZM42.2422 150.387L41.8306 149.475L41.8074 149.486L41.7848 149.497L42.2422 150.387ZM42.2422 140.875L41.7848 141.764L41.8074 141.776L41.8306 141.786L42.2422 140.875ZM37.9063 139.172H20.2109V141.172H37.9063V139.172ZM21.2109 140.172L21.2109 134.059H19.2109V140.172H21.2109ZM20.2109 135.059H37.9063V133.059H20.2109V135.059ZM37.9063 135.059C40.8834 135.059 43.0724 135.525 44.5679 136.358L45.5415 134.611C43.6256 133.543 41.0489 133.059 37.9063 133.059V135.059ZM44.5617 136.354C47.257 137.882 48.7422 140.837 48.7422 145.621H50.7422C50.7422 140.431 49.1024 136.629 45.5477 134.614L44.5617 136.354ZM48.7422 145.621C48.7422 150.405 47.257 153.369 44.5589 154.909L45.5504 156.646C49.1023 154.618 50.7422 150.811 50.7422 145.621H48.7422ZM44.5679 154.904C43.0724 155.737 40.8834 156.203 37.9063 156.203V158.203C41.0489 158.203 43.6256 157.719 45.5415 156.651L44.5679 154.904ZM37.9063 156.203H20.2109V158.203H37.9063V156.203ZM21.2109 157.203L21.2109 151.09H19.2109V157.203H21.2109ZM20.2109 152.09H37.9063V150.09H20.2109V152.09ZM37.9063 152.09C39.9226 152.09 41.5679 151.858 42.6995 151.276L41.7848 149.497C41.0936 149.853 39.8482 150.09 37.9063 150.09V152.09ZM42.6538 151.298C44.7635 150.345 45.6641 148.286 45.6641 145.621H43.6641C43.6641 147.852 42.95 148.97 41.8306 149.475L42.6538 151.298ZM45.6641 145.621C45.6641 142.967 44.7615 140.916 42.6538 139.964L41.8306 141.786C42.952 142.293 43.6641 143.406 43.6641 145.621H45.6641ZM42.6995 139.986C41.5679 139.404 39.9226 139.172 37.9063 139.172V141.172C39.8482 141.172 41.0936 141.409 41.7848 141.764L42.6995 139.986ZM37.7109 122.281H36.7109V123.281H37.7109V122.281ZM49 122.281H50V121.281H49V122.281ZM49 128.16V129.16H50V128.16H49ZM20.2109 128.16H19.2109V129.16H20.2109V128.16ZM20.2109 114.039L19.2111 114.02L19.2109 114.029V114.039H20.2109ZM20.9531 109.391L21.8746 109.779L21.8762 109.775L20.9531 109.391ZM22.9648 106.617L23.6138 107.378L23.6156 107.376L22.9648 106.617ZM32.457 105.621L32.9217 104.736L32.9181 104.734L32.457 105.621ZM35.25 109.039L34.3045 109.365L35.1775 111.901L36.1778 109.412L35.25 109.039ZM37.5352 106.227L38.0188 107.102L38.0257 107.098L38.0325 107.094L37.5352 106.227ZM46.6367 105.23L46.4307 104.252L46.4198 104.254L46.6367 105.23ZM48.2773 104.137V103.137H47.7177L47.425 103.614L48.2773 104.137ZM49 104.137H50V103.137H49V104.137ZM49 110.758L49.2747 111.719L50 111.512V110.758H49ZM47.457 111.148L47.6471 112.13L47.6531 112.129L47.457 111.148ZM44.9766 111.402L44.9912 112.402L44.9919 112.402L44.9766 111.402ZM42.3008 111.441L42.315 112.441L42.3154 112.441L42.3008 111.441ZM38.6289 112.457L39.3506 113.149L39.3575 113.142L38.6289 112.457ZM32.4766 112.418L31.5669 112.833L31.5686 112.837L32.4766 112.418ZM25.7188 112.359L26.606 112.821L26.6071 112.819L25.7188 112.359ZM25.2109 122.281H24.2109V123.281H25.2109V122.281ZM32.9453 122.281V123.281H33.9453V122.281H32.9453ZM36.7109 116.07V122.281H38.7109V116.07H36.7109ZM37.7109 123.281H49V121.281H37.7109V123.281ZM48 122.281V128.16H50V122.281H48ZM49 127.16H20.2109V129.16H49V127.16ZM21.2109 128.16V114.039H19.2109V128.16H21.2109ZM21.2108 114.058C21.2489 112.089 21.4914 110.688 21.8746 109.779L20.0317 109.002C19.5034 110.255 19.2511 111.953 19.2111 114.02L21.2108 114.058ZM21.8762 109.775C22.2726 108.824 22.8503 108.029 23.6138 107.378L22.3159 105.856C21.3085 106.716 20.5451 107.77 20.03 109.006L21.8762 109.775ZM23.6156 107.376C24.2644 106.82 24.9806 106.382 25.7675 106.057L25.006 104.208C24.022 104.613 23.1236 105.164 22.3141 105.858L23.6156 107.376ZM25.7675 106.057C26.5121 105.751 27.3884 105.586 28.4141 105.586V103.586C27.1741 103.586 26.0321 103.786 25.006 104.208L25.7675 106.057ZM28.4141 105.586C29.6059 105.586 30.7965 105.885 31.996 106.508L32.9181 104.734C31.4613 103.977 29.9566 103.586 28.4141 103.586V105.586ZM31.9924 106.507C33.0515 107.062 33.8288 107.983 34.3045 109.365L36.1955 108.714C35.5774 106.918 34.4927 105.56 32.9217 104.736L31.9924 106.507ZM36.1778 109.412C36.6492 108.239 37.2794 107.51 38.0188 107.102L37.0515 105.351C35.8118 106.036 34.9185 107.182 34.3222 108.666L36.1778 109.412ZM38.0325 107.094C38.7802 106.665 40.0648 106.387 42.0273 106.387V104.387C39.9534 104.387 38.2432 104.668 37.0378 105.359L38.0325 107.094ZM42.0273 106.387H43.9609V104.387H42.0273V106.387ZM43.9609 106.387C45.2647 106.387 46.2624 106.338 46.8536 106.207L46.4198 104.254C46.0735 104.331 45.2874 104.387 43.9609 104.387V106.387ZM46.8427 106.209C47.8158 106.004 48.6153 105.498 49.1297 104.66L47.425 103.614C47.2363 103.921 46.942 104.144 46.4307 104.252L46.8427 106.209ZM48.2773 105.137H49V103.137H48.2773V105.137ZM48 104.137V110.758H50V104.137H48ZM48.7253 109.796C48.0986 109.975 47.6135 110.097 47.2609 110.168L47.6531 112.129C48.0818 112.043 48.6254 111.905 49.2747 111.719L48.7253 109.796ZM47.267 110.167C46.519 110.311 45.7506 110.39 44.9612 110.402L44.9919 112.402C45.8952 112.388 46.7805 112.298 47.6471 112.13L47.267 110.167ZM44.962 110.402L42.2862 110.442L42.3154 112.441L44.9912 112.402L44.962 110.402ZM42.2866 110.442C41.3177 110.455 40.4611 110.551 39.7393 110.751C39.0213 110.95 38.374 111.268 37.9003 111.772L39.3575 113.142C39.4958 112.995 39.7665 112.819 40.2724 112.679C40.7746 112.54 41.448 112.454 42.315 112.441L42.2866 110.442ZM37.9072 111.765C37.0063 112.704 36.7109 114.265 36.7109 116.07H38.7109C38.7109 114.334 39.0276 113.486 39.3506 113.149L37.9072 111.765ZM33.3863 112.003C33.0302 111.223 32.4808 110.606 31.7406 110.196C31.0133 109.793 30.1608 109.621 29.2344 109.621V111.621C29.9225 111.621 30.4177 111.749 30.7711 111.945C31.1117 112.134 31.3761 112.415 31.5669 112.833L33.3863 112.003ZM29.2344 109.621C27.2622 109.621 25.6593 110.296 24.8304 111.9L26.6071 112.819C26.9761 112.105 27.717 111.621 29.2344 111.621V109.621ZM24.8315 111.898C24.3818 112.763 24.2109 113.933 24.2109 115.289H26.2109C26.2109 114.041 26.3786 113.258 26.606 112.821L24.8315 111.898ZM24.2109 115.289V122.281H26.2109V115.289H24.2109ZM25.2109 123.281H32.9453V121.281H25.2109V123.281ZM33.9453 122.281V115.465H31.9453V122.281H33.9453ZM33.9453 115.465C33.9453 114.065 33.7887 112.875 33.3845 111.999L31.5686 112.837C31.7894 113.315 31.9453 114.156 31.9453 115.465H33.9453ZM49 76.1094H50V75.1094H49V76.1094ZM49 82.125L49.4985 82.9919L50 82.7035V82.125H49ZM28.5508 93.8828L28.0523 93.0159L24.8054 94.8828H28.5508V93.8828ZM49 93.8828H50V92.8828H49V93.8828ZM49 99.4883V100.488H50V99.4883H49ZM20.2109 99.4883H19.2109V100.488H20.2109V99.4883ZM20.2109 93.1797L19.7154 92.3111L19.2109 92.5989V93.1797H20.2109ZM40.3086 81.7148L40.8041 82.5835L44.0797 80.7148H40.3086V81.7148ZM20.2109 81.7148H19.2109V82.7148H20.2109V81.7148ZM20.2109 76.1094L20.2109 75.1094H19.2109V76.1094H20.2109ZM48 76.1094V82.125H50V76.1094H48ZM48.5015 81.2581L28.0523 93.0159L29.0492 94.7497L49.4985 82.9919L48.5015 81.2581ZM28.5508 94.8828H49V92.8828H28.5508V94.8828ZM48 93.8828V99.4883H50V93.8828H48ZM49 98.4883H20.2109V100.488H49V98.4883ZM21.2109 99.4883V93.1797H19.2109V99.4883H21.2109ZM20.7064 94.0483L40.8041 82.5835L39.8131 80.8462L19.7154 92.3111L20.7064 94.0483ZM40.3086 80.7148H20.2109V82.7148H40.3086V80.7148ZM21.2109 81.7148V76.1094H19.2109L19.2109 81.7148H21.2109ZM20.2109 77.1094H49V75.1094H20.2109L20.2109 77.1094ZM43.082 53.6289L42.7829 52.6747L42.082 52.8944V53.6289H43.082ZM43.082 64.2344H42.082V64.9529L42.763 65.1821L43.082 64.2344ZM49 66.2266H50L50 65.5081L49.319 65.2788L49 66.2266ZM49 72.5156L48.6639 73.4575L50 73.9342V72.5156H49ZM20.2109 62.2422H19.2109V62.9471L19.8748 63.184L20.2109 62.2422ZM20.2109 55.4453L19.8771 54.5027L19.2109 54.7386V55.4453H20.2109ZM49 45.25H50V43.835L48.6662 44.3074L49 45.25ZM49 51.7734L49.2992 52.7276L50 52.5079V51.7734H49ZM38.1211 55.3086H39.1211V53.9422L37.8187 54.3554L38.1211 55.3086ZM26.793 58.9023L26.4906 57.9492L23.5341 58.8871L26.4817 59.8527L26.793 58.9023ZM38.1211 62.6133L37.8098 63.5636L39.1211 63.9932V62.6133H38.1211ZM42.082 53.6289V64.2344H44.082V53.6289H42.082ZM42.763 65.1821L48.681 67.1743L49.319 65.2788L43.4011 63.2866L42.763 65.1821ZM48 66.2266V72.5156H50V66.2266H48ZM49.3361 71.5738L20.547 61.3004L19.8748 63.184L48.6639 73.4575L49.3361 71.5738ZM21.2109 62.2422L21.2109 55.4453H19.2109V62.2422H21.2109ZM20.5448 56.3879L49.3338 46.1926L48.6662 44.3074L19.8771 54.5027L20.5448 56.3879ZM48 45.25V51.7734H50V45.25H48ZM48.7008 50.8192L42.7829 52.6747L43.3812 54.5831L49.2992 52.7276L48.7008 50.8192ZM37.8187 54.3554L26.4906 57.9492L27.0954 59.8555L38.4235 56.2618L37.8187 54.3554ZM26.4817 59.8527L37.8098 63.5636L38.4324 61.663L27.1043 57.952L26.4817 59.8527ZM39.1211 62.6133V55.3086H37.1211V62.6133H39.1211ZM20.2109 23.6289V22.6289H19.2109V23.6289H20.2109ZM25.3086 23.6289H26.3086V22.6289H25.3086V23.6289ZM25.3086 32.2422H24.3086V33.2422H25.3086V32.2422ZM49 32.2422H50V31.2422H49V32.2422ZM49 38.2969V39.2969H50V38.2969H49ZM25.3086 38.2969V37.2969H24.3086V38.2969H25.3086ZM25.3086 46.9492V47.9492H26.3086V46.9492H25.3086ZM20.2109 46.9492H19.2109V47.9492H20.2109V46.9492ZM20.2109 24.6289H25.3086V22.6289H20.2109V24.6289ZM24.3086 23.6289V32.2422H26.3086V23.6289H24.3086ZM25.3086 33.2422H49V31.2422H25.3086V33.2422ZM48 32.2422V38.2969H50V32.2422H48ZM49 37.2969H25.3086V39.2969H49V37.2969ZM24.3086 38.2969V46.9492H26.3086V38.2969H24.3086ZM25.3086 45.9492H20.2109V47.9492H25.3086V45.9492ZM21.2109 46.9492V23.6289H19.2109V46.9492H21.2109Z" fill="#FCF7EB" mask="url(#path-2-outside-1_282_670)"/>
</svg>
