<svg width="61" height="61" viewBox="0 0 61 61" fill="none" xmlns="http://www.w3.org/2000/svg">
<path d="M38.7398 14.7734H22.2602C18.1332 14.7734 14.7734 18.1332 14.7734 22.2602V38.7398C14.7734 42.8668 18.1332 46.2266 22.2602 46.2266H38.7398C42.8668 46.2266 46.2266 42.8668 46.2266 38.7398V22.2602C46.2266 18.1332 42.8668 14.7734 38.7398 14.7734ZM30.5 40.2934C25.1005 40.2934 20.7066 35.8995 20.7066 30.5C20.7066 25.1005 25.1005 20.7066 30.5 20.7066C35.8995 20.7066 40.2934 25.1005 40.2934 30.5C40.2934 35.8995 35.8995 40.2934 30.5 40.2934ZM40.5602 22.7082C39.2973 22.7082 38.2727 21.6836 38.2727 20.4183C38.2727 19.1554 39.2973 18.1308 40.5602 18.1308C41.8255 18.1308 42.8501 19.1554 42.8501 20.4183C42.8501 21.6836 41.8255 22.7082 40.5602 22.7082ZM30.5 24.0426C26.9401 24.0426 24.0426 26.9401 24.0426 30.5C24.0426 34.0599 26.9401 36.9574 30.5 36.9574C34.0599 36.9574 36.9574 34.0599 36.9574 30.5C36.9574 26.9401 34.0599 24.0426 30.5 24.0426ZM30.5 0C13.6559 0 0 13.6559 0 30.5C0 47.3441 13.6559 61 30.5 61C47.3441 61 61 47.3441 61 30.5C61 13.6559 47.3441 0 30.5 0ZM49.5625 38.7398C49.5625 44.7063 44.7063 49.5625 38.7398 49.5625H22.2602C16.2937 49.5625 11.4375 44.7063 11.4375 38.7398V22.2602C11.4375 16.2937 16.2937 11.4375 22.2602 11.4375H38.7398C44.7063 11.4375 49.5625 16.2937 49.5625 22.2602V38.7398Z" fill="#FCF7EB"/>
</svg>
