<svg width="61" height="61" viewBox="0 0 61 61" fill="none" xmlns="http://www.w3.org/2000/svg">
<path d="M21.8554 43.7326V23.3325H15.0714V43.7348H21.8533L21.8554 43.7326ZM18.4634 20.5439C20.8271 20.5439 22.302 18.9754 22.302 17.0168C22.2585 15.0169 20.8271 13.4941 18.5113 13.4941C16.1868 13.4941 14.6727 15.0191 14.6727 17.0168C14.6727 18.9775 16.1454 20.5461 18.422 20.5461L18.4634 20.5439ZM46.3099 43.7326V32.0359C46.3099 25.7681 42.9636 22.851 38.5041 22.851C34.9007 22.851 33.2886 24.8335 32.391 26.2213V23.3281H25.6091C25.6984 25.2453 25.6091 43.7326 25.6091 43.7326H32.391V32.3387C32.391 31.7287 32.4346 31.1187 32.6132 30.6874C33.1012 29.4674 34.2188 28.206 36.0902 28.206C38.5455 28.206 39.5324 30.0752 39.5324 32.818V43.7348H46.3121L46.3099 43.7326ZM30.5 0C47.3447 0 61 13.6531 61 30.5C61 47.3447 47.3447 61 30.5 61C13.6531 61 0 47.3447 0 30.5C0 13.6531 13.6531 0 30.5 0Z" fill="#FCF7EB"/>
</svg>
