<svg width="40" height="40" viewBox="0 0 40 40" fill="none" xmlns="http://www.w3.org/2000/svg">
<path d="M14.3314 28.6771V15.3H9.88286V28.6786H14.33L14.3314 28.6771ZM12.1071 13.4714C13.6571 13.4714 14.6243 12.4429 14.6243 11.1586C14.5957 9.84714 13.6571 8.84857 12.1386 8.84857C10.6143 8.84857 9.62143 9.84857 9.62143 11.1586C9.62143 12.4443 10.5871 13.4729 12.08 13.4729L12.1071 13.4714ZM30.3671 28.6771V21.0071C30.3671 16.8971 28.1729 14.9843 25.2486 14.9843C22.8857 14.9843 21.8286 16.2843 21.24 17.1943V15.2971H16.7929C16.8514 16.5543 16.7929 28.6771 16.7929 28.6771H21.24V21.2057C21.24 20.8057 21.2686 20.4057 21.3857 20.1229C21.7057 19.3229 22.4386 18.4957 23.6657 18.4957C25.2757 18.4957 25.9229 19.7214 25.9229 21.52V28.6786H30.3686L30.3671 28.6771ZM20 0C31.0457 0 40 8.95286 40 20C40 31.0457 31.0457 40 20 40C8.95286 40 0 31.0457 0 20C0 8.95286 8.95286 0 20 0Z" fill="#A778CD"/>
</svg>
