<svg width="155" height="43" viewBox="0 0 155 43" fill="none" xmlns="http://www.w3.org/2000/svg">
<rect x="1.5" y="1.5" width="152" height="40" fill="#212121" stroke="#FCF7EB" stroke-width="3"/>
<mask id="path-2-outside-1_700_634" maskUnits="userSpaceOnUse" x="11" y="12" width="130" height="19" fill="black">
<rect fill="white" x="11" y="12" width="130" height="19"/>
<path d="M12.6758 13.2197H14.7598V20.9111L22.4512 13.2197H25.4053L18.8418 19.5791L25.5879 29H22.8057L17.2842 21.083L14.7598 23.5V29H12.6758V13.2197ZM29.6699 13.2197V22.9736C29.6699 24.1195 29.8848 25.0719 30.3145 25.8311C30.9518 26.9769 32.026 27.5498 33.5371 27.5498C35.349 27.5498 36.5807 26.9303 37.2324 25.6914C37.5833 25.0182 37.7588 24.1123 37.7588 22.9736V13.2197H39.9287V22.082C39.9287 24.0228 39.6673 25.516 39.1445 26.5615C38.1849 28.4665 36.373 29.4189 33.709 29.4189C31.0449 29.4189 29.2367 28.4665 28.2842 26.5615C27.7614 25.516 27.5 24.0228 27.5 22.082V13.2197H29.6699ZM43.248 13.2197H45.3857V27.1201H53.3779V29H43.248V13.2197ZM65.3447 13.2197V15.0996H60.0273V29H57.8574V15.0996H52.54V13.2197H65.3447ZM69.6309 13.2197V22.9736C69.6309 24.1195 69.8457 25.0719 70.2754 25.8311C70.9128 26.9769 71.987 27.5498 73.498 27.5498C75.3099 27.5498 76.5417 26.9303 77.1934 25.6914C77.5443 25.0182 77.7197 24.1123 77.7197 22.9736V13.2197H79.8896V22.082C79.8896 24.0228 79.6283 25.516 79.1055 26.5615C78.1458 28.4665 76.334 29.4189 73.6699 29.4189C71.0059 29.4189 69.1976 28.4665 68.2451 26.5615C67.7223 25.516 67.4609 24.0228 67.4609 22.082V13.2197H69.6309ZM90.5459 20.4492C91.5485 20.4492 92.3398 20.2487 92.9199 19.8477C93.5072 19.4466 93.8008 18.7233 93.8008 17.6777C93.8008 16.5534 93.3926 15.7871 92.5762 15.3789C92.1393 15.1641 91.5557 15.0566 90.8252 15.0566H85.6045V20.4492H90.5459ZM83.4668 13.2197H90.7715C91.9746 13.2197 92.9665 13.3952 93.7471 13.7461C95.2295 14.4193 95.9707 15.6618 95.9707 17.4736C95.9707 18.4189 95.7738 19.1924 95.3799 19.7939C94.9932 20.3955 94.4489 20.8789 93.7471 21.2441C94.363 21.4948 94.8249 21.8242 95.1328 22.2324C95.4479 22.6406 95.6234 23.3031 95.6592 24.2197L95.7344 26.3359C95.7559 26.9375 95.806 27.3851 95.8848 27.6787C96.0137 28.18 96.2428 28.5023 96.5723 28.6455V29H93.9512C93.8796 28.8639 93.8223 28.6885 93.7793 28.4736C93.7363 28.2588 93.7005 27.8434 93.6719 27.2275L93.543 24.5957C93.4928 23.5645 93.1097 22.8734 92.3936 22.5225C91.9854 22.3291 91.3444 22.2324 90.4707 22.2324H85.6045V29H83.4668V13.2197ZM99.1074 13.2197H101.632L109.603 26.0029V13.2197H111.633V29H109.237L101.148 16.2275V29H99.1074V13.2197ZM123.105 22.5332L120.71 15.5615L118.164 22.5332H123.105ZM119.593 13.2197H122.01L127.735 29H125.394L123.793 24.2734H117.552L115.844 29H113.652L119.593 13.2197ZM139.53 13.2197V15.0996H134.213V29H132.043V15.0996H126.726V13.2197H139.53Z"/>
</mask>
<path d="M12.6758 13.2197H14.7598V20.9111L22.4512 13.2197H25.4053L18.8418 19.5791L25.5879 29H22.8057L17.2842 21.083L14.7598 23.5V29H12.6758V13.2197ZM29.6699 13.2197V22.9736C29.6699 24.1195 29.8848 25.0719 30.3145 25.8311C30.9518 26.9769 32.026 27.5498 33.5371 27.5498C35.349 27.5498 36.5807 26.9303 37.2324 25.6914C37.5833 25.0182 37.7588 24.1123 37.7588 22.9736V13.2197H39.9287V22.082C39.9287 24.0228 39.6673 25.516 39.1445 26.5615C38.1849 28.4665 36.373 29.4189 33.709 29.4189C31.0449 29.4189 29.2367 28.4665 28.2842 26.5615C27.7614 25.516 27.5 24.0228 27.5 22.082V13.2197H29.6699ZM43.248 13.2197H45.3857V27.1201H53.3779V29H43.248V13.2197ZM65.3447 13.2197V15.0996H60.0273V29H57.8574V15.0996H52.54V13.2197H65.3447ZM69.6309 13.2197V22.9736C69.6309 24.1195 69.8457 25.0719 70.2754 25.8311C70.9128 26.9769 71.987 27.5498 73.498 27.5498C75.3099 27.5498 76.5417 26.9303 77.1934 25.6914C77.5443 25.0182 77.7197 24.1123 77.7197 22.9736V13.2197H79.8896V22.082C79.8896 24.0228 79.6283 25.516 79.1055 26.5615C78.1458 28.4665 76.334 29.4189 73.6699 29.4189C71.0059 29.4189 69.1976 28.4665 68.2451 26.5615C67.7223 25.516 67.4609 24.0228 67.4609 22.082V13.2197H69.6309ZM90.5459 20.4492C91.5485 20.4492 92.3398 20.2487 92.9199 19.8477C93.5072 19.4466 93.8008 18.7233 93.8008 17.6777C93.8008 16.5534 93.3926 15.7871 92.5762 15.3789C92.1393 15.1641 91.5557 15.0566 90.8252 15.0566H85.6045V20.4492H90.5459ZM83.4668 13.2197H90.7715C91.9746 13.2197 92.9665 13.3952 93.7471 13.7461C95.2295 14.4193 95.9707 15.6618 95.9707 17.4736C95.9707 18.4189 95.7738 19.1924 95.3799 19.7939C94.9932 20.3955 94.4489 20.8789 93.7471 21.2441C94.363 21.4948 94.8249 21.8242 95.1328 22.2324C95.4479 22.6406 95.6234 23.3031 95.6592 24.2197L95.7344 26.3359C95.7559 26.9375 95.806 27.3851 95.8848 27.6787C96.0137 28.18 96.2428 28.5023 96.5723 28.6455V29H93.9512C93.8796 28.8639 93.8223 28.6885 93.7793 28.4736C93.7363 28.2588 93.7005 27.8434 93.6719 27.2275L93.543 24.5957C93.4928 23.5645 93.1097 22.8734 92.3936 22.5225C91.9854 22.3291 91.3444 22.2324 90.4707 22.2324H85.6045V29H83.4668V13.2197ZM99.1074 13.2197H101.632L109.603 26.0029V13.2197H111.633V29H109.237L101.148 16.2275V29H99.1074V13.2197ZM123.105 22.5332L120.71 15.5615L118.164 22.5332H123.105ZM119.593 13.2197H122.01L127.735 29H125.394L123.793 24.2734H117.552L115.844 29H113.652L119.593 13.2197ZM139.53 13.2197V15.0996H134.213V29H132.043V15.0996H126.726V13.2197H139.53Z" fill="#FCF7EB"/>
<path d="M12.6758 13.2197V12.2197H11.6758V13.2197H12.6758ZM14.7598 13.2197H15.7598V12.2197H14.7598V13.2197ZM14.7598 20.9111H13.7598V23.3253L15.4669 21.6182L14.7598 20.9111ZM22.4512 13.2197V12.2197H22.037L21.7441 12.5126L22.4512 13.2197ZM25.4053 13.2197L26.1011 13.9379L27.8745 12.2197H25.4053V13.2197ZM18.8418 19.5791L18.1459 18.8609L17.527 19.4606L18.0288 20.1613L18.8418 19.5791ZM25.5879 29V30H27.5339L26.4009 28.4178L25.5879 29ZM22.8057 29L21.9854 29.572L22.2839 30H22.8057V29ZM17.2842 21.083L18.1044 20.511L17.4363 19.5529L16.5926 20.3607L17.2842 21.083ZM14.7598 23.5L14.0682 22.7777L13.7598 23.073V23.5H14.7598ZM14.7598 29V30H15.7598V29H14.7598ZM12.6758 29H11.6758V30H12.6758V29ZM12.6758 14.2197H14.7598V12.2197H12.6758V14.2197ZM13.7598 13.2197V20.9111H15.7598V13.2197H13.7598ZM15.4669 21.6182L23.1583 13.9268L21.7441 12.5126L14.0527 20.204L15.4669 21.6182ZM22.4512 14.2197H25.4053V12.2197H22.4512V14.2197ZM24.7094 12.5015L18.1459 18.8609L19.5376 20.2973L26.1011 13.9379L24.7094 12.5015ZM18.0288 20.1613L24.7748 29.5822L26.4009 28.4178L19.6548 18.9969L18.0288 20.1613ZM25.5879 28H22.8057V30H25.5879V28ZM23.6259 28.428L18.1044 20.511L16.464 21.6551L21.9854 29.572L23.6259 28.428ZM16.5926 20.3607L14.0682 22.7777L15.4513 24.2223L17.9758 21.8053L16.5926 20.3607ZM13.7598 23.5V29H15.7598V23.5H13.7598ZM14.7598 28H12.6758V30H14.7598V28ZM13.6758 29V13.2197H11.6758V29H13.6758ZM29.6699 13.2197H30.6699V12.2197H29.6699V13.2197ZM30.3145 25.8311L31.1884 25.3449L31.1847 25.3385L30.3145 25.8311ZM37.2324 25.6914L38.1175 26.1569L38.1192 26.1537L37.2324 25.6914ZM37.7588 13.2197V12.2197H36.7588V13.2197H37.7588ZM39.9287 13.2197H40.9287V12.2197H39.9287V13.2197ZM39.1445 26.5615L40.0376 27.0114L40.039 27.0087L39.1445 26.5615ZM27.5 13.2197V12.2197H26.5V13.2197H27.5ZM28.6699 13.2197V22.9736H30.6699V13.2197H28.6699ZM28.6699 22.9736C28.6699 24.2396 28.9069 25.3744 29.4442 26.3237L31.1847 25.3385C30.8627 24.7695 30.6699 23.9993 30.6699 22.9736H28.6699ZM29.4406 26.3172C30.2846 27.8345 31.7297 28.5498 33.5371 28.5498V26.5498C32.3224 26.5498 31.6191 26.1193 31.1884 25.3449L29.4406 26.3172ZM33.5371 28.5498C35.5923 28.5498 37.2405 27.8242 38.1175 26.1569L36.3474 25.2259C35.921 26.0365 35.1056 26.5498 33.5371 26.5498V28.5498ZM38.1192 26.1537C38.5724 25.2841 38.7588 24.1994 38.7588 22.9736H36.7588C36.7588 24.0252 36.5942 24.7523 36.3457 25.2292L38.1192 26.1537ZM38.7588 22.9736V13.2197H36.7588V22.9736H38.7588ZM37.7588 14.2197H39.9287V12.2197H37.7588V14.2197ZM38.9287 13.2197V22.082H40.9287V13.2197H38.9287ZM38.9287 22.082C38.9287 23.9576 38.6721 25.2704 38.2501 26.1143L40.039 27.0087C40.6626 25.7615 40.9287 24.088 40.9287 22.082H38.9287ZM38.2515 26.1116C37.507 27.5894 36.1078 28.4189 33.709 28.4189V30.4189C36.6383 30.4189 38.8628 29.3436 40.0376 27.0114L38.2515 26.1116ZM33.709 28.4189C31.31 28.4189 29.9162 27.5895 29.1786 26.1143L27.3898 27.0087C28.5571 29.3434 30.7799 30.4189 33.709 30.4189V28.4189ZM29.1786 26.1143C28.7566 25.2704 28.5 23.9576 28.5 22.082H26.5C26.5 24.088 26.7661 25.7615 27.3898 27.0087L29.1786 26.1143ZM28.5 22.082V13.2197H26.5V22.082H28.5ZM27.5 14.2197H29.6699V12.2197H27.5V14.2197ZM43.248 13.2197V12.2197H42.248V13.2197H43.248ZM45.3857 13.2197H46.3857V12.2197H45.3857V13.2197ZM45.3857 27.1201H44.3857V28.1201H45.3857V27.1201ZM53.3779 27.1201H54.3779V26.1201H53.3779V27.1201ZM53.3779 29V30H54.3779V29H53.3779ZM43.248 29H42.248V30H43.248V29ZM43.248 14.2197H45.3857V12.2197H43.248V14.2197ZM44.3857 13.2197V27.1201H46.3857V13.2197H44.3857ZM45.3857 28.1201H53.3779V26.1201H45.3857V28.1201ZM52.3779 27.1201V29H54.3779V27.1201H52.3779ZM53.3779 28H43.248V30H53.3779V28ZM44.248 29V13.2197H42.248V29H44.248ZM65.3447 13.2197H66.3447V12.2197H65.3447V13.2197ZM65.3447 15.0996V16.0996H66.3447V15.0996H65.3447ZM60.0273 15.0996V14.0996H59.0273V15.0996H60.0273ZM60.0273 29V30H61.0273V29H60.0273ZM57.8574 29H56.8574V30H57.8574V29ZM57.8574 15.0996H58.8574V14.0996H57.8574V15.0996ZM52.54 15.0996H51.54V16.0996H52.54V15.0996ZM52.54 13.2197V12.2197H51.54V13.2197H52.54ZM64.3447 13.2197V15.0996H66.3447V13.2197H64.3447ZM65.3447 14.0996H60.0273V16.0996H65.3447V14.0996ZM59.0273 15.0996V29H61.0273V15.0996H59.0273ZM60.0273 28H57.8574V30H60.0273V28ZM58.8574 29V15.0996H56.8574V29H58.8574ZM57.8574 14.0996H52.54V16.0996H57.8574V14.0996ZM53.54 15.0996V13.2197H51.54V15.0996H53.54ZM52.54 14.2197H65.3447V12.2197H52.54V14.2197ZM69.6309 13.2197H70.6309V12.2197H69.6309V13.2197ZM70.2754 25.8311L71.1493 25.3449L71.1456 25.3385L70.2754 25.8311ZM77.1934 25.6914L78.0784 26.1569L78.0801 26.1537L77.1934 25.6914ZM77.7197 13.2197V12.2197H76.7197V13.2197H77.7197ZM79.8896 13.2197H80.8896V12.2197H79.8896V13.2197ZM79.1055 26.5615L79.9986 27.0114L79.9999 27.0087L79.1055 26.5615ZM67.4609 13.2197V12.2197H66.4609V13.2197H67.4609ZM68.6309 13.2197V22.9736H70.6309V13.2197H68.6309ZM68.6309 22.9736C68.6309 24.2396 68.8678 25.3744 69.4051 26.3237L71.1456 25.3385C70.8236 24.7695 70.6309 23.9993 70.6309 22.9736H68.6309ZM69.4015 26.3172C70.2455 27.8345 71.6906 28.5498 73.498 28.5498V26.5498C72.2833 26.5498 71.58 26.1193 71.1493 25.3449L69.4015 26.3172ZM73.498 28.5498C75.5533 28.5498 77.2014 27.8242 78.0784 26.1569L76.3083 25.2259C75.8819 26.0365 75.0665 26.5498 73.498 26.5498V28.5498ZM78.0801 26.1537C78.5334 25.2841 78.7197 24.1994 78.7197 22.9736H76.7197C76.7197 24.0252 76.5552 24.7523 76.3066 25.2292L78.0801 26.1537ZM78.7197 22.9736V13.2197H76.7197V22.9736H78.7197ZM77.7197 14.2197H79.8896V12.2197H77.7197V14.2197ZM78.8896 13.2197V22.082H80.8896V13.2197H78.8896ZM78.8896 22.082C78.8896 23.9576 78.633 25.2704 78.211 26.1143L79.9999 27.0087C80.6235 25.7615 80.8896 24.088 80.8896 22.082H78.8896ZM78.2124 26.1116C77.468 27.5894 76.0687 28.4189 73.6699 28.4189V30.4189C76.5993 30.4189 78.8237 29.3436 79.9986 27.0114L78.2124 26.1116ZM73.6699 28.4189C71.2709 28.4189 69.8771 27.5895 69.1395 26.1143L67.3507 27.0087C68.518 29.3434 70.7408 30.4189 73.6699 30.4189V28.4189ZM69.1395 26.1143C68.7176 25.2704 68.4609 23.9576 68.4609 22.082H66.4609C66.4609 24.088 66.7271 25.7615 67.3507 27.0087L69.1395 26.1143ZM68.4609 22.082V13.2197H66.4609V22.082H68.4609ZM67.4609 14.2197H69.6309V12.2197H67.4609V14.2197ZM92.9199 19.8477L92.3559 19.0218L92.3512 19.0251L92.9199 19.8477ZM92.5762 15.3789L93.0234 14.4845L93.0175 14.4816L92.5762 15.3789ZM85.6045 15.0566V14.0566H84.6045V15.0566H85.6045ZM85.6045 20.4492H84.6045V21.4492H85.6045V20.4492ZM83.4668 13.2197V12.2197H82.4668V13.2197H83.4668ZM93.7471 13.7461L94.1605 12.8356L94.1571 12.834L93.7471 13.7461ZM95.3799 19.7939L94.5432 19.2461L94.5387 19.2532L95.3799 19.7939ZM93.7471 21.2441L93.2854 20.3571L91.3673 21.3553L93.3701 22.1704L93.7471 21.2441ZM95.1328 22.2324L94.3344 22.8347L94.3412 22.8435L95.1328 22.2324ZM95.6592 24.2197L96.6586 24.1842L96.6584 24.1807L95.6592 24.2197ZM95.7344 26.3359L94.735 26.3714L94.735 26.3716L95.7344 26.3359ZM95.8848 27.6787L96.8533 27.4297L96.8506 27.4196L95.8848 27.6787ZM96.5723 28.6455H97.5723V27.9899L96.971 27.7284L96.5723 28.6455ZM96.5723 29V30H97.5723V29H96.5723ZM93.9512 29L93.0663 29.4657L93.3474 30H93.9512V29ZM93.6719 27.2275L94.6708 27.1811L94.6707 27.1786L93.6719 27.2275ZM93.543 24.5957L92.5442 24.6443L92.5442 24.6446L93.543 24.5957ZM92.3936 22.5225L92.8336 21.6244L92.8216 21.6187L92.3936 22.5225ZM85.6045 22.2324V21.2324H84.6045V22.2324H85.6045ZM85.6045 29V30H86.6045V29H85.6045ZM83.4668 29H82.4668V30H83.4668V29ZM90.5459 21.4492C91.6693 21.4492 92.6845 21.2261 93.4886 20.6702L92.3512 19.0251C91.9952 19.2712 91.4277 19.4492 90.5459 19.4492V21.4492ZM93.4839 20.6735C94.4567 20.0091 94.8008 18.8886 94.8008 17.6777H92.8008C92.8008 18.558 92.5576 18.8841 92.356 19.0219L93.4839 20.6735ZM94.8008 17.6777C94.8008 16.2802 94.2637 15.1046 93.0234 14.4845L92.129 16.2733C92.5214 16.4696 92.8008 16.8265 92.8008 17.6777H94.8008ZM93.0175 14.4816C92.3919 14.1739 91.6387 14.0566 90.8252 14.0566V16.0566C91.4727 16.0566 91.8867 16.1542 92.1348 16.2763L93.0175 14.4816ZM90.8252 14.0566H85.6045V16.0566H90.8252V14.0566ZM84.6045 15.0566V20.4492H86.6045V15.0566H84.6045ZM85.6045 21.4492H90.5459V19.4492H85.6045V21.4492ZM83.4668 14.2197H90.7715V12.2197H83.4668V14.2197ZM90.7715 14.2197C91.8867 14.2197 92.7265 14.3837 93.3371 14.6582L94.1571 12.834C93.2064 12.4066 92.0625 12.2197 90.7715 12.2197V14.2197ZM93.3336 14.6566C93.9134 14.9199 94.3026 15.2704 94.556 15.6952C94.8135 16.1269 94.9707 16.703 94.9707 17.4736H96.9707C96.9707 16.4324 96.7573 15.4813 96.2736 14.6706C95.7858 13.8528 95.0631 13.2455 94.1605 12.8356L93.3336 14.6566ZM94.9707 17.4736C94.9707 18.2845 94.8018 18.8514 94.5433 19.2462L96.2165 20.3417C96.7458 19.5334 96.9707 18.5533 96.9707 17.4736H94.9707ZM94.5387 19.2532C94.2559 19.6931 93.8496 20.0635 93.2854 20.3571L94.2087 22.1312C95.0482 21.6943 95.7304 21.098 96.2211 20.3347L94.5387 19.2532ZM93.3701 22.1704C93.868 22.373 94.1632 22.6076 94.3345 22.8347L95.9311 21.6302C95.4865 21.0408 94.8579 20.6166 94.124 20.3179L93.3701 22.1704ZM94.3412 22.8435C94.4638 23.0022 94.6267 23.4075 94.6599 24.2588L96.6584 24.1807C96.6201 23.1986 96.4321 22.279 95.9244 21.6214L94.3412 22.8435ZM94.6598 24.2552L94.735 26.3714L96.7337 26.3004L96.6585 24.1842L94.6598 24.2552ZM94.735 26.3716C94.7571 26.9904 94.8097 27.5308 94.9189 27.9378L96.8506 27.4196C96.8023 27.2394 96.7546 26.8846 96.7337 26.3002L94.735 26.3716ZM94.9163 27.9278C95.0865 28.5899 95.4525 29.2491 96.1735 29.5626L96.971 27.7284C96.9897 27.7366 96.9884 27.7451 96.9683 27.7169C96.9429 27.6811 96.8961 27.5964 96.8533 27.4297L94.9163 27.9278ZM95.5723 28.6455V29H97.5723V28.6455H95.5723ZM96.5723 28H93.9512V30H96.5723V28ZM94.8361 28.5343C94.8236 28.5106 94.7913 28.4347 94.7599 28.2775L92.7987 28.6697C92.8532 28.9422 92.9355 29.2173 93.0663 29.4657L94.8361 28.5343ZM94.7599 28.2775C94.734 28.1479 94.6999 27.8061 94.6708 27.1811L92.673 27.274C92.7012 27.8808 92.7387 28.3696 92.7987 28.6697L94.7599 28.2775ZM94.6707 27.1786L94.5418 24.5468L92.5442 24.6446L92.6731 27.2765L94.6707 27.1786ZM94.5418 24.5471C94.48 23.2765 93.9751 22.1838 92.8336 21.6245L91.9535 23.4205C92.2443 23.5629 92.5057 23.8524 92.5442 24.6443L94.5418 24.5471ZM92.8216 21.6187C92.2055 21.3268 91.3793 21.2324 90.4707 21.2324V23.2324C91.3095 23.2324 91.7653 23.3314 91.9655 23.4262L92.8216 21.6187ZM90.4707 21.2324H85.6045V23.2324H90.4707V21.2324ZM84.6045 22.2324V29H86.6045V22.2324H84.6045ZM85.6045 28H83.4668V30H85.6045V28ZM84.4668 29V13.2197H82.4668V29H84.4668ZM99.1074 13.2197V12.2197H98.1074V13.2197H99.1074ZM101.632 13.2197L102.48 12.6906L102.187 12.2197H101.632V13.2197ZM109.603 26.0029L108.754 26.532L110.603 29.4967V26.0029H109.603ZM109.603 13.2197V12.2197H108.603V13.2197H109.603ZM111.633 13.2197H112.633V12.2197H111.633V13.2197ZM111.633 29V30H112.633V29H111.633ZM109.237 29L108.392 29.535L108.687 30H109.237V29ZM101.148 16.2275L101.993 15.6925L100.148 12.7795V16.2275H101.148ZM101.148 29V30H102.148V29H101.148ZM99.1074 29H98.1074V30H99.1074V29ZM99.1074 14.2197H101.632V12.2197L99.1074 12.2197V14.2197ZM100.783 13.7488L108.754 26.532L110.451 25.4738L102.48 12.6906L100.783 13.7488ZM110.603 26.0029V13.2197H108.603V26.0029H110.603ZM109.603 14.2197H111.633V12.2197H109.603V14.2197ZM110.633 13.2197V29H112.633V13.2197H110.633ZM111.633 28H109.237V30H111.633V28ZM110.082 28.465L101.993 15.6925L100.304 16.7626L108.392 29.535L110.082 28.465ZM100.148 16.2275V29H102.148V16.2275H100.148ZM101.148 28H99.1074V30H101.148V28ZM100.107 29V13.2197H98.1074V29H100.107ZM123.105 22.5332V23.5332H124.506L124.051 22.2082L123.105 22.5332ZM120.71 15.5615L121.656 15.2366L120.739 12.5677L119.771 15.2185L120.71 15.5615ZM118.164 22.5332L117.225 22.1902L116.734 23.5332H118.164V22.5332ZM119.593 13.2197V12.2197H118.901L118.657 12.8674L119.593 13.2197ZM122.01 13.2197L122.95 12.8787L122.711 12.2197H122.01V13.2197ZM127.735 29V30H129.162L128.675 28.6589L127.735 29ZM125.394 29L124.446 29.3207L124.676 30H125.394V29ZM123.793 24.2734L124.74 23.9527L124.51 23.2734H123.793V24.2734ZM117.552 24.2734V23.2734H116.85L116.611 23.9336L117.552 24.2734ZM115.844 29V30H116.546L116.784 29.3399L115.844 29ZM113.652 29L112.716 28.6477L112.207 30H113.652V29ZM124.051 22.2082L121.656 15.2366L119.764 15.8865L122.16 22.8582L124.051 22.2082ZM119.771 15.2185L117.225 22.1902L119.103 22.8762L121.649 15.9045L119.771 15.2185ZM118.164 23.5332H123.105V21.5332H118.164V23.5332ZM119.593 14.2197H122.01V12.2197H119.593V14.2197ZM121.07 13.5608L126.795 29.3411L128.675 28.6589L122.95 12.8787L121.07 13.5608ZM127.735 28H125.394V30H127.735V28ZM126.341 28.6793L124.74 23.9527L122.846 24.5942L124.446 29.3207L126.341 28.6793ZM123.793 23.2734H117.552V25.2734H123.793V23.2734ZM116.611 23.9336L114.903 28.6601L116.784 29.3399L118.492 24.6133L116.611 23.9336ZM115.844 28H113.652V30H115.844V28ZM114.588 29.3523L120.529 13.572L118.657 12.8674L112.716 28.6477L114.588 29.3523ZM139.53 13.2197H140.53V12.2197H139.53V13.2197ZM139.53 15.0996V16.0996H140.53V15.0996H139.53ZM134.213 15.0996V14.0996H133.213V15.0996H134.213ZM134.213 29V30H135.213V29H134.213ZM132.043 29H131.043V30H132.043V29ZM132.043 15.0996H133.043V14.0996H132.043V15.0996ZM126.726 15.0996H125.726V16.0996H126.726V15.0996ZM126.726 13.2197V12.2197H125.726V13.2197H126.726ZM138.53 13.2197V15.0996H140.53V13.2197H138.53ZM139.53 14.0996H134.213V16.0996H139.53V14.0996ZM133.213 15.0996V29H135.213V15.0996H133.213ZM134.213 28H132.043V30H134.213V28ZM133.043 29V15.0996H131.043V29H133.043ZM132.043 14.0996H126.726V16.0996H132.043V14.0996ZM127.726 15.0996V13.2197H125.726V15.0996H127.726ZM126.726 14.2197H139.53V12.2197H126.726V14.2197Z" fill="#FCF7EB" mask="url(#path-2-outside-1_700_634)"/>
</svg>
